<svg width="314" height="314" viewBox="0 0 314 314" fill="none" xmlns="http://www.w3.org/2000/svg">
<path d="M157 2.68698C241.846 2.68698 311.052 71.905 311.052 156.763C311.052 241.597 241.846 310.79 157 310.79C72.154 310.79 2.948 241.597 2.948 156.763C2.948 71.905 72.154 2.68698 157 2.68698Z" fill="white"/>
<path d="M157 2.68698C241.846 2.68698 311.052 71.905 311.052 156.763C311.052 241.597 241.846 310.79 157 310.79C72.154 310.79 2.948 241.597 2.948 156.763C2.948 71.905 72.154 2.68698 157 2.68698Z" stroke="#231F20" stroke-width="4.606" stroke-miterlimit="2.613"/>
<path d="M27.05 195.639C21.12 198.984 18.71 206.049 21.644 212.491C25.726 221.503 35.114 223.863 43.302 220.205C51.516 216.56 56.297 208.509 52.327 199.97C49.319 193.48 42.827 190.546 35.575 192.818L37.348 197.711C41.704 196.263 46.323 197.711 48.308 202.167C51.054 208.321 46.198 212.915 40.693 215.374C35.176 217.834 28.772 217.034 26.038 210.855C24.166 206.674 25.863 203.278 28.772 200.969L27.049 195.639H27.05ZM11.906 175.89C12.992 185.202 21.606 190.545 30.456 189.134C39.319 187.749 45.935 181.582 44.649 172.194C43.376 162.858 35.699 159 26.836 159.512C17.873 160.062 10.808 166.49 11.906 175.89ZM16.438 175.166C15.676 168.413 21.019 165.379 26.998 164.743C33.053 164.068 39.356 166.216 40.218 172.881C41.079 179.647 35.324 182.781 29.37 183.691C23.416 184.641 17.2 181.857 16.438 175.166ZM42.964 156.192L43.176 151.199L19.359 149.052L44.012 142.872L44.462 138.366L21.681 124.797L46.271 129.553L47.533 124.66L15.863 118.419L14.366 125.783L37.422 139.465L37.409 139.54L11.469 145.282L11.095 153.708L42.964 156.192V156.192ZM49.068 120.765L50.953 115.585L20.869 104.388L18.984 109.581L49.068 120.765V120.765ZM27.186 101.267L31.854 92.379L54.76 106.622L57.344 101.754L34.55 87.536L39.456 78.598L35.474 76.139L22.754 99.257L27.186 101.267V101.267ZM62.962 92.167L77.567 74.941L74.259 71.521L63.136 84.901L55.909 78.523L65.82 66.427L62.7 63.307L52.389 75.427L46.097 69.723L57.194 57.065L53.799 53.47L39.069 70.934L62.962 92.167ZM94.681 61.384L99.349 58.476L82.472 31.276L77.816 34.184L94.681 61.384ZM103.681 55.967L108.287 53.745L98.962 32.449L99.1 32.386L120.358 48.714L125.875 47.079L116.151 16.621L110.921 18.156L117.961 40.85L117.699 40.862L96.116 24.01L90.798 26.707L103.681 55.967V55.967ZM121.02 20.427L130.394 18.867L134.526 44.844L139.969 43.971L135.837 17.931L145.611 16.196L145.099 11.203L119.696 15.522L121.02 20.428V20.427ZM150.791 42.984L173.722 43.821L173.797 39.077L156.371 38.328L156.671 28.704L172.511 29.066L172.574 24.585L156.746 24.21L156.883 15.647L173.86 16.483L173.947 11.727L151.477 10.791L150.791 42.984ZM189.451 19.142L198.139 21.514C200.898 22.238 202.857 24.21 201.759 28.042C200.835 31.225 198.863 32.312 195.53 31.388L186.517 28.916L189.451 19.142V19.142ZM176.768 44.37L181.798 45.506L185.368 32.923L193.483 35.158C198.351 36.493 198.451 39.327 196.866 44.869C196.429 46.355 195.966 48.127 196.404 49.675L201.959 51.96C201.147 50.4 201.709 46.255 202.708 42.735C204.081 37.954 202.133 35.845 200.361 35.07L200.398 34.983C201.459 34.945 205.604 34.608 207.251 28.803C208.724 23.686 206.54 19.179 199.911 17.345L185.381 13.313L176.768 44.37V44.37ZM204.181 52.933L209.024 55.205L219.822 34.87L219.947 34.945L221.657 62.857L226.201 66.215L243.377 39.289L238.983 35.844L226.225 55.767L224.59 27.281L219.235 24.647L204.181 52.933V52.933ZM256.809 57.939L256.883 58.001L256.908 58.014L250.505 71.658L243.801 64.68L256.809 57.939V57.939ZM227.474 67.176L231.918 70.896L239.869 66.726L248.707 75.702L244.85 84.428L248.507 88.958L262.737 56.154L258.457 52.047L227.474 67.177V67.176ZM267.132 68.649L272.325 76.214L249.98 91.181L252.964 95.787L275.334 80.833L280.988 89.083L285.082 86.737L270.902 65.716L267.132 68.649V68.649ZM258.632 105.262L260.952 110.242L289.988 96.524L287.654 91.555L258.631 105.262H258.632ZM298.264 118.244C295.718 109.244 286.93 105.499 278.342 108.37C269.841 111.228 264.086 118.718 266.57 127.78C268.992 136.644 277.568 139.714 286.218 137.38C294.981 135.008 300.811 127.206 298.264 118.244V118.244ZM293.933 119.654C295.73 125.996 290.563 130.827 284.72 132.324C278.89 133.834 272.574 132.849 270.852 126.482C269.104 119.966 274.197 115.385 279.964 113.625C285.719 111.865 292.098 113.175 293.933 119.655V119.654ZM270.34 144.37L270.627 149.6L293.92 148.328V148.465L270.652 163.844L270.365 169.674L302.059 172.344L302.609 166.403L278.816 164.817V164.48L302.858 148.94L302.446 142.735L270.34 144.37V144.37ZM292.435 193.915L292.422 193.99L292.397 194.052L277.367 194.402L280.102 185.177L292.435 193.915V193.915ZM269.965 172.195L269.142 177.837L276.507 182.606L272.937 194.652L264.236 195.201L262.251 200.668L296.791 198.322L298.414 192.717L269.966 172.195H269.965ZM261.215 203.19L250.805 221.964L254.974 224.274L262.713 210.305L286.68 223.662L289.339 218.868L261.215 203.19V203.19ZM228.586 284.36L247.223 271.602L244.563 267.595L230.471 277.395L225.178 269.567L237.973 260.517L235.439 256.76L222.644 265.798L217.913 258.458L231.856 248.833L229.172 244.839L210.698 257.447L228.586 284.36V284.36ZM204.625 295.161L210.342 293.089L208.445 258.549L203.426 260.796L205.261 287.896L205.174 287.946L188.472 266.251L183.117 267.836L204.625 295.161V295.161ZM163.89 302.708L186.322 300.012L185.349 295.418L168.547 297.328L167.373 287.678L182.091 285.918L181.204 281.5L166.649 283.247L165.651 274.559L181.916 272.899L181.042 268.181L160.221 270.69L163.891 302.708H163.89ZM94.838 288.886L116.096 296.813L117.319 292.243L101.579 286.352L104.762 277.289L118.93 282.732L120.066 278.425L106.222 273.083L109.106 264.732L124.26 270.861L125.483 266.367L105.773 258.59L94.838 288.886V288.886ZM95.277 270.273L84.08 263.183L81.733 266.59L89.011 271.234C85.94 275.528 81.109 276.564 76.441 273.281C70.898 269.349 71.946 262.696 75.329 257.765C78.687 252.847 84.229 249.851 89.809 253.72C93.093 255.992 94.915 259.825 93.03 263.494L97.724 266.166C100.982 259.899 98.024 254.008 92.319 250.063C84.504 244.595 75.766 247.254 70.761 254.582C65.755 261.934 66.141 271.509 73.931 276.939C77.127 279.161 80.073 279.585 84.391 278.561L83.643 283.055L86.576 284.778L95.277 270.273V270.273ZM124.966 299.19L130.246 300.3L134.416 276.907L134.553 276.932L147.186 302.41L153.09 302.722L154.588 270.653L149.645 270.516L148.659 294.046L148.572 294.021L136.002 268.731L130.422 267.583L124.966 299.189V299.19Z" fill="#231F20"/>
<path d="M157 51.013C215.233 51.013 262.755 98.536 262.755 156.756C262.755 214.976 215.233 262.498 157 262.498C98.742 262.498 51.27 214.976 51.27 156.756C51.27 98.536 98.742 51.013 157 51.013V51.013Z" stroke="#231F20" stroke-width="4.606" stroke-miterlimit="2.613"/>
<path d="M134.58 134.329V80.465H179.42V134.329H233.27V179.192H179.42V233.032H134.58V179.192H80.717V134.33H134.581L134.58 134.329Z" fill="#ED1C24"/>
</svg>
